<svg xmlns:xlink="http://www.w3.org/1999/xlink" xmlns="http://www.w3.org/2000/svg" viewBox="0 0 245.057 47.322" width="245.057"  height="47.322" ><path d="M168.981 46.042h10.059l17.416-44.577h-12.594l-9.771 28.985-9.69-28.985h-12.839zM72.893 0a23.661 23.661 0 1023.659 23.661A23.688 23.688 0 0072.891 0m0 36.232a12.571 12.571 0 1112.571-12.571 12.585 12.585 0 01-12.571 12.571M126.813 0a23.661 23.661 0 1023.661 23.661A23.688 23.688 0 00126.813 0m0 36.232a12.571 12.571 0 1112.572-12.571 12.586 12.586 0 01-12.572 12.571M221.397 0a23.661 23.661 0 1023.661 23.661A23.688 23.688 0 00221.397 0m0 36.232a12.571 12.571 0 1112.571-12.571 12.586 12.586 0 01-12.571 12.571M30.002 46.058h12.249V24.621c0-20.552-13.836-23.141-24.242-23.186H0l.007 44.626h12.667V12.027h7.6c.139-.005.329-.005.515-.005 4.2 0 9.212 2.011 9.212 11.595z" fill="#FFFFFF"></path></svg>